<svg width="24" height="24" viewBox="0 0 24 24" fill="none" xmlns="http://www.w3.org/2000/svg">
<g clip-path="url(#clip0)">
<path d="M19.4782 12.1688L17.2001 11.339C17.1297 11.3109 17.0454 11.2969 16.961 11.2969H2.36414C1.97034 11.2969 1.66101 11.6062 1.66101 12V21.8906C1.66101 23.0578 2.60315 24 3.77039 24H17.8329C19.0002 24 19.9423 23.0578 19.9423 21.8906V12.8296C19.9423 12.5344 19.7594 12.2672 19.4782 12.1688Z" fill="#FC1A40"/>
<path d="M19.9423 12.8296V21.8906C19.9423 23.0578 19.0001 24 17.8329 24H10.8016V11.2969H16.961C17.0454 11.2969 17.1298 11.3109 17.2 11.339L19.4782 12.1688C19.7594 12.2672 19.9423 12.5344 19.9423 12.8296Z" fill="#C60034"/>
<path d="M19.6892 4.58382C19.4501 3.6135 18.7329 2.85417 17.7626 2.54475C16.8063 2.24939 15.7797 2.46037 15.0345 3.13533L13.4032 4.56975L13.0798 2.41823C12.9251 1.43385 12.2923 0.604118 11.3501 0.210414C11.1673 0.140054 10.9845 0.0838041 10.8017 0.055679C10.0282 -0.0990088 9.22668 0.0697415 8.57976 0.547915C7.72195 1.16667 7.28605 2.20729 7.42663 3.24787C7.58137 4.2885 8.28449 5.17444 9.28289 5.526L10.8017 6.07444L12.672 6.76351C12.6861 6.76351 12.6861 6.76351 12.6861 6.76351L15.9345 7.95878C16.2579 8.07132 16.5954 8.12762 16.9188 8.12762C17.608 8.12762 18.283 7.8744 18.8173 7.39632C19.6048 6.69319 19.9423 5.61033 19.6892 4.58382Z" fill="#FE9923"/>
<path d="M18.8173 7.39623C18.2829 7.87431 17.6079 8.12753 16.9188 8.12753C16.5954 8.12753 16.2579 8.07123 15.9345 7.95868L12.686 6.76341C12.686 6.76341 12.686 6.76341 12.672 6.76341L10.8016 6.07435V0.055542C10.9844 0.0837139 11.1673 0.139917 11.3501 0.210277C12.2922 0.603981 12.9251 1.43372 13.0797 2.41809L13.4031 4.56961L15.0344 3.13519C15.7797 2.46023 16.8063 2.24925 17.7625 2.54461C18.7329 2.85403 19.45 3.61336 19.6891 4.58368C19.9423 5.61024 19.6048 6.6931 18.8173 7.39623Z" fill="#FE8821"/>
<path d="M22.347 10.9733L21.3907 13.6171C21.2782 13.8983 21.011 14.0671 20.7297 14.0671C20.6454 14.0671 20.561 14.053 20.4907 14.0249L13.2203 11.3812L12.5595 9.20149L10.8016 9.5952L9.2548 9.94676L1.98443 7.303C1.6188 7.16243 1.43604 6.75457 1.56255 6.403L2.53287 3.75934C2.71568 3.22497 3.10948 2.803 3.61573 2.56398C4.12198 2.32496 4.6985 2.29679 5.23287 2.49367L10.8017 4.51867L11.1814 4.65925C11.1814 4.65925 12.7001 7.41555 12.7424 7.41555C12.7705 7.41555 13.3752 7.07805 13.9658 6.75457C14.5563 6.43113 15.147 6.09367 15.147 6.09367L21.0813 8.25926C21.6157 8.45613 22.0375 8.84993 22.2766 9.35618C22.5157 9.86238 22.5438 10.439 22.347 10.9733Z" fill="#FF3E75"/>
<path d="M22.347 10.9733L21.3907 13.6171C21.2782 13.8983 21.011 14.0671 20.7297 14.0671C20.6454 14.0671 20.561 14.053 20.4907 14.0249L13.2203 11.3812L12.5595 9.2015L10.8016 9.5952V4.51868L11.1814 4.65926C11.1814 4.65926 12.7001 7.41556 12.7423 7.41556C12.7705 7.41556 13.3751 7.07806 13.9658 6.75457C14.5563 6.43113 15.147 6.09368 15.147 6.09368L21.0813 8.25926C21.6157 8.45614 22.0376 8.84993 22.2766 9.35618C22.5157 9.86239 22.5438 10.439 22.347 10.9733Z" fill="#FC1A40"/>
<path d="M8.69226 11.2969V24H12.911V11.2969H8.69226Z" fill="#FCBF29"/>
<path d="M11.1813 4.6593L10.8016 5.69993L9.25476 9.94686L10.8016 10.5094L12.5594 11.1422L13.2203 11.3812L15.147 6.09373L11.1813 4.6593Z" fill="#FCBF29"/>
<path d="M12.9112 11.2969H10.8018V24H12.9112V11.2969Z" fill="#FE9923"/>
<path d="M15.147 6.09373L13.2203 11.3812L12.5595 11.1422L10.8016 10.5094V5.69993L11.1813 4.6593L15.147 6.09373Z" fill="#FE9923"/>
</g>
<defs>
<clipPath id="clip0">
<rect width="24" height="24" fill="white"/>
</clipPath>
</defs>
</svg>
